<?xml version="1.0" encoding="UTF-8" standalone="no"?>
<svg xmlns="http://www.w3.org/2000/svg" xmlns:xlink="http://www.w3.org/1999/xlink" width="290.63724" height="73.395935">
  <defs>
    <linearGradient xlink:href="#a" id="c" x1="150.95201" x2="252.20032" y1="-22.383852" y2="204.04417" gradientUnits="userSpaceOnUse"/>
    <linearGradient id="a" x1="200.5" x2="200.5" y1="13.8989" y2="150.3159" gradientUnits="userSpaceOnUse">
      <stop offset=".1374" stop-color="#fff"/>
      <stop offset="1" stop-color="#ff9e10"/>
    </linearGradient>
    <linearGradient xlink:href="#b" id="d" x1="165.26433" x2="165.26433" y1="21.361534" y2="201.18958" gradientUnits="userSpaceOnUse"/>
    <linearGradient id="b" x1="255.5396" x2="255.5396" y1="13.4697" y2="162.15089" gradientUnits="userSpaceOnUse">
      <stop offset="0" stop-color="#fff"/>
      <stop offset="1" stop-color="#ff9e10"/>
    </linearGradient>
  </defs>
  <g transform="translate(-403.577293 -945.96368)">
    <g transform="translate(106.82895 455.67877)">
      <g transform="translate(337.14286 501.04336) scale(.24477)">
        <path fill="#ff9e10" d="M348.5 126.267c-92 150-302 120.333-302 120.333 131.667-131.667.667-236.666.667-236.666S259.5-22.733 348.5 126.267"/>
        <path fill="none" d="M348.5 126.267c-92 150-302 120.333-302 120.333 131.667-131.667.667-236.666.667-236.666S259.5-22.733 348.5 126.267"/>
        <path d="M342.888 122.987c-21.697 35.15-52.396 63.058-88.73 82.52-31.545 16.896-66.463 26.91-101.714 32.368-24.517 3.796-49.476 5.103-74.266 4.456-7.682-.2-15.361-.617-23.017-1.297-2.112-.188-4.222-.399-6.328-.643-1.194-.138-3.507-.467-.605-.059.956 3.621 1.912 7.242 2.868 10.864 34.224-34.444 61.806-78.466 60.54-128.578-.82-32.482-14.151-63.534-33.653-89.128-7.702-10.107-16.266-20.153-26.22-28.153-.956 3.621-1.912 7.243-2.868 10.864 2.512-.385-1.297.154 1.003-.14 2.466-.314 4.938-.581 7.411-.825 8.892-.876 17.819-1.386 26.75-1.653 28.634-.855 57.429 1.013 85.627 6.109 32.594 5.891 64.479 16.242 93.392 32.542 32.842 18.515 60.372 44.987 79.81 77.312 4.313 7.174 15.557.643 11.225-6.561-21.209-35.272-51.477-63.787-87.461-83.644-31.655-17.465-66.842-28.044-102.438-33.699C125.474-.513 84.386-2.3 45.438 3.666c-4.635.71-6.485 7.957-2.868 10.864 12.511 10.055 22.994 22.962 31.643 35.994 18.467 27.829 28.313 61.188 23.051 94.594-5.96 37.834-28.917 70.272-55.36 96.886-3.104 3.125-2.168 10.156 2.868 10.864 40.747 5.729 83.679 2.87 123.929-4.642 34.599-6.457 68.466-17.944 99.095-35.406 35.256-20.1 65.001-48.739 86.316-83.272 4.417-7.155-6.832-13.679-11.224-6.561z"/>
        <path fill="url(#c)" d="M59.159122 13.910789S110.9214 59.900129 110.9214 126.15733c0 0 40.13332-39.853642 94.24563 0 0 0 61.68048 54.35675 135.75341 0 0 0-63.48214-131.0884172-281.761318-112.246541z"/>
        <path fill="none" stroke="#000" stroke-width="10" d="M0 170.10001h101.15M0 84.766998h100.817"/>
        <path fill="none" stroke="#000" stroke-width="7.9606986" d="M386.68484 125.434h87.82386"/>
      </g>
      <path fill="#fefafa" stroke="#000" stroke-linecap="round" stroke-linejoin="round" stroke-width="1.70000005" d="M431.60715428 532.18358571c0 2.26831-1.95875 4.10714-4.375 4.10714-2.41624 0-4.375-1.83883-4.375-4.10714 0-2.26831 1.95876-4.10714 4.375-4.10714 2.41625 0 4.375 1.83883 4.375 4.10714z"/>
    </g>
    <text xml:space="preserve" x="404.19589" y="1005.4744" font-family="Sans" font-size="18.04716492" font-weight="400" letter-spacing="0" style="line-height:125%" word-spacing="0"><tspan x="404.19589" y="1005.4744">B</tspan></text>
    <g transform="translate(558.13163 945.96358) scale(.23492)">
      <path fill="#ff9e10" d="M406.127 129.372c0 165-302 120.333-302 120.333 0-157.793.667-236.667.667-236.667s301.333-47.166 301.333 116.334"/>
      <path fill="none" d="M406.127 129.372c0 165-302 120.333-302 120.333 0-157.793.667-236.667.667-236.667s301.333-47.166 301.333 116.334"/>
      <path d="M399.627 129.372c-.097 27.382-9.641 52.274-29.28 71.066-19.202 18.373-45.171 29.011-70.74 35.902-51.558 13.897-106.747 14.378-159.694 10.524-8.656-.63-17.301-1.425-25.923-2.411-2.375-.271-4.748-.561-7.118-.872-1.732-.228 1.917.268-.364-.052-.218-.03-.435-.061-.652-.093 1.591 2.089 3.181 4.179 4.772 6.268.001-76.966.075-153.935.623-230.899.014-1.922.027-3.845.043-5.767-1.591 2.089-3.181 4.179-4.772 6.268.686-.107 1.374-.206 2.061-.304.793-.113 1.587-.223 2.381-.331.032-.004-1.729.229.052-.005.686-.09 1.372-.178 2.058-.265 7.298-.927 14.617-1.695 21.943-2.36 23.81-2.161 47.745-3.121 71.65-2.728 28.769.473 57.631 2.96 85.732 9.328 25.992 5.89 52.657 15.458 73.17 32.386 22.64 18.682 33.953 44.897 34.058 74.345.03 8.382 13.03 8.385 13 0-.103-28.614-9.771-55.704-29.947-76.284-19.326-19.713-45.561-31.497-71.714-39.095C258.289-1.311 201.215-1.882 146.88 2.071c-14.63 1.064-29.314 2.435-43.814 4.699-2.829.442-4.75 3.625-4.772 6.268-.473 56.176-.548 112.356-.623 168.534-.03 22.711-.043 45.422-.043 68.133 0 2.622 1.959 5.853 4.772 6.268 33.462 4.938 67.744 6.336 101.514 5.582 29.268-.654 58.674-3.406 87.282-9.768 27.156-6.038 54.529-15.774 76.955-32.615 13.281-9.975 24.606-22.368 32.331-37.146 8.476-16.218 12.081-34.446 12.146-52.653.029-8.386-12.971-8.383-13.001-.001z"/>
      <path fill="url(#d)" d="M366.096 54.674C329.803 24.995 254.875 2.368 111 19.244v110s61.243-58.667 128.396 0c0 0 78.578 74.04 160.24 0 0 0 6.867-41.525-33.54-74.57z"/>
      <path fill="none" stroke="#000" stroke-width="10" d="M0 175.911h101.15M0 90.578003h100.817M410 130.578h100.81699"/>
    </g>
    <path fill="none" stroke="#000" stroke-width="2.4000001" d="m577.23611 967.14348-25.17205.01-.20921-16.8944H444.21309"/>
    <path fill="none" stroke="#000" stroke-width="2.4000001" d="m445.00583 949.15948.35713 28.3852-23.21429.167m23.36659 20.6686-23.21429.167"/>
    <text xml:space="preserve" x="403.60373" y="983.58746" font-family="Sans" font-size="18.04716492" font-weight="400" letter-spacing="0" style="line-height:125%" word-spacing="0"><tspan x="403.60373" y="983.58746">A</tspan></text>
    <text xml:space="preserve" x="680.83777" y="982.16718" font-family="Sans" font-size="18.04716492" font-weight="400" letter-spacing="0" style="line-height:125%" word-spacing="0"><tspan x="680.83777" y="982.16718">Q</tspan></text>
  </g>
</svg>